<?xml version="1.0" standalone="no"?>
<!DOCTYPE svg PUBLIC "-//W3C//DTD SVG 20010904//EN"
 "http://www.w3.org/TR/2001/REC-SVG-20010904/DTD/svg10.dtd">
<svg version="1.0" xmlns="http://www.w3.org/2000/svg"
 width="512.000000pt" height="512.000000pt" viewBox="0 0 512.000000 512.000000"
 preserveAspectRatio="xMidYMid meet">

<g transform="translate(0.000000,512.000000) scale(0.100000,-0.100000)"
fill="#000000" stroke="none">
<path d="M880 4585 l0 -296 -25 -24 -24 -25 -296 0 -295 0 0 -1840 0 -1840
1520 0 1520 0 0 880 0 880 -535 0 -536 0 -24 25 -25 24 0 831 0 831 25 24 24
25 536 0 535 0 0 400 0 400 -1200 0 -1200 0 0 -295z m2240 55 l0 -80 -1040 0
-1040 0 0 80 0 80 1040 0 1040 0 0 -80z m0 -320 l0 -80 -1040 0 -1040 0 0 80
0 80 1040 0 1040 0 0 -80z m-1120 -320 l0 -80 -800 0 -800 0 0 80 0 80 800 0
800 0 0 -80z m0 -320 l0 -80 -800 0 -800 0 0 80 0 80 800 0 800 0 0 -80z m0
-320 l0 -80 -800 0 -800 0 0 80 0 80 800 0 800 0 0 -80z m0 -320 l0 -80 -800
0 -800 0 0 80 0 80 800 0 800 0 0 -80z m0 -320 l0 -80 -800 0 -800 0 0 80 0
80 800 0 800 0 0 -80z m-880 -640 l0 -80 -135 0 c-131 0 -137 -1 -160 -25 -24
-23 -25 -28 -25 -176 l0 -152 -102 -103 -102 -104 102 -104 102 -103 0 -152
c0 -148 1 -153 25 -176 23 -24 29 -25 160 -25 l135 0 0 -80 0 -80 -136 0
c-170 0 -204 9 -269 75 -64 63 -75 100 -75 251 l0 118 -120 121 c-159 161
-159 149 0 310 l120 121 0 118 c0 65 5 137 12 160 15 51 99 137 148 153 19 6
99 11 178 12 l142 1 0 -80z m1594 68 c55 -16 138 -99 154 -154 7 -23 12 -95
12 -160 l0 -118 120 -121 c105 -106 120 -126 120 -155 0 -29 -15 -49 -120
-155 l-120 -121 0 -118 c0 -151 -11 -188 -75 -251 -65 -66 -99 -75 -269 -75
l-136 0 0 80 0 80 135 0 c131 0 137 1 160 25 24 23 25 28 25 176 l0 152 102
103 102 104 -102 104 -102 103 0 152 c0 148 -1 153 -25 176 -23 24 -29 25
-160 25 l-135 0 0 80 0 80 136 0 c78 0 154 -5 178 -12z m-1194 -548 l0 -80 80
0 80 0 0 -80 0 -80 -80 0 -80 0 0 -80 0 -80 -80 0 -80 0 0 80 0 80 -80 0 -80
0 0 80 0 80 80 0 80 0 0 80 0 80 80 0 80 0 0 -80z m640 0 l0 -80 80 0 80 0 0
-80 0 -80 -80 0 -80 0 0 -80 0 -80 -80 0 -80 0 0 80 0 80 -80 0 -80 0 0 80 0
80 80 0 80 0 0 80 0 80 80 0 80 0 0 -80z"/>
<path d="M535 4580 l-180 -180 183 0 182 0 0 180 c0 99 -1 180 -3 180 -1 0
-83 -81 -182 -180z"/>
<path d="M3440 4320 l0 -240 80 0 80 0 0 240 0 240 -80 0 -80 0 0 -240z"/>
<path d="M2320 3200 l0 -720 1280 0 1280 0 0 720 0 720 -1280 0 -1280 0 0
-720z m794 548 c55 -16 138 -99 154 -154 7 -23 12 -67 12 -98 l0 -56 -80 0
-80 0 0 55 c0 46 -4 60 -25 80 -23 24 -31 25 -135 25 -104 0 -112 -1 -135 -25
l-25 -24 0 -351 0 -351 25 -24 c23 -24 31 -25 135 -25 104 0 112 1 135 25 21
20 25 34 25 80 l0 55 80 0 80 0 0 -56 c0 -87 -18 -133 -75 -189 -63 -64 -100
-75 -245 -75 -62 0 -131 5 -154 12 -55 16 -138 99 -154 154 -8 29 -12 146 -12
394 0 248 4 365 12 394 15 51 99 137 148 153 48 15 263 16 314 1z m646 -388
l0 -80 80 0 80 0 0 -80 0 -80 -80 0 -80 0 0 -80 0 -80 -80 0 -80 0 0 80 0 80
-80 0 -80 0 0 80 0 80 80 0 80 0 0 80 0 80 80 0 80 0 0 -80z m640 0 l0 -80 80
0 80 0 0 -80 0 -80 -80 0 -80 0 0 -80 0 -80 -80 0 -80 0 0 80 0 80 -80 0 -80
0 0 80 0 80 80 0 80 0 0 80 0 80 80 0 80 0 0 -80z"/>
<path d="M3440 1385 l0 -936 -25 -24 -24 -25 -1416 0 -1415 0 0 -80 0 -80
1520 0 1520 0 0 1040 0 1040 -80 0 -80 0 0 -935z"/>
</g>
</svg>
