<?xml version="1.0" standalone="no"?>
<!DOCTYPE svg PUBLIC "-//W3C//DTD SVG 20010904//EN"
 "http://www.w3.org/TR/2001/REC-SVG-20010904/DTD/svg10.dtd">
<svg version="1.0" xmlns="http://www.w3.org/2000/svg"
 width="261.000000pt" height="223.000000pt" viewBox="0 0 261.000000 223.000000"
 preserveAspectRatio="xMidYMid meet">

<g transform="translate(0.000000,223.000000) scale(0.100000,-0.100000)"
fill="#000000" stroke="none">
<path d="M865 2221 c-50 -22 -60 -46 -65 -171 -5 -114 -6 -120 -33 -148 -35
-36 -78 -46 -120 -28 -18 8 -63 46 -102 85 -108 110 -146 108 -263 -12 -109
-113 -107 -141 18 -272 69 -72 80 -88 80 -119 0 -91 -39 -116 -180 -116 -174
0 -200 -24 -200 -190 0 -166 26 -190 200 -190 141 0 180 -25 180 -116 0 -31
-11 -47 -80 -119 -125 -131 -127 -159 -18 -272 117 -120 155 -122 263 -12 39
39 84 77 102 85 42 18 85 8 120 -28 27 -28 28 -34 33 -148 5 -114 6 -121 33
-147 27 -28 29 -28 153 -28 l126 0 29 33 c28 31 29 35 29 138 0 124 14 164 65
188 44 21 55 20 55 -6 0 -13 9 -41 19 -64 22 -49 68 -74 134 -74 25 0 48 -4
51 -8 3 -5 -8 -22 -24 -37 -16 -16 -37 -48 -46 -72 -16 -40 -16 -46 0 -87 19
-50 100 -132 141 -142 54 -13 105 2 150 46 l42 42 5 -61 c7 -103 62 -151 173
-151 124 1 175 49 175 167 l0 57 49 -48 c51 -50 99 -66 156 -52 41 10 122 92
141 141 21 56 7 101 -49 162 l-40 43 58 0 c114 0 165 54 165 175 0 121 -51
175 -165 175 l-58 0 40 43 c56 61 70 106 49 162 -19 49 -100 131 -141 141 -57
14 -105 -2 -156 -52 l-49 -48 0 57 c0 88 -20 124 -80 150 -34 14 -50 27 -50
39 0 35 -31 79 -65 94 -22 9 -71 14 -135 14 -141 0 -180 25 -180 116 0 31 11
47 80 119 124 130 126 159 21 268 -122 127 -153 128 -280 4 -97 -95 -128 -109
-185 -82 -52 25 -66 64 -66 189 0 103 -1 107 -29 138 l-29 33 -114 2 c-62 2
-122 -1 -133 -6z m270 -665 c64 -29 117 -80 152 -149 24 -45 28 -64 28 -142 0
-106 -22 -163 -90 -230 -66 -67 -125 -90 -225 -90 -104 0 -158 22 -228 92
-151 151 -110 417 77 513 90 46 195 48 286 6z m884 -792 c43 -36 58 -89 38
-137 -18 -41 -68 -77 -110 -77 -57 0 -113 47 -117 101 -5 53 1 72 34 105 45
45 108 48 155 8z"/>
</g>
</svg>
