<?xml version="1.0" standalone="no"?>
<!DOCTYPE svg PUBLIC "-//W3C//DTD SVG 20010904//EN"
 "http://www.w3.org/TR/2001/REC-SVG-20010904/DTD/svg10.dtd">
<svg version="1.0" xmlns="http://www.w3.org/2000/svg"
 width="245.000000pt" height="245.000000pt" viewBox="0 0 245.000000 245.000000"
 preserveAspectRatio="xMidYMid meet">

<g transform="translate(0.000000,245.000000) scale(0.100000,-0.100000)"
fill="#000000" stroke="none">
<path d="M677 2443 c-4 -3 -7 -51 -7 -105 l0 -98 35 0 c37 0 85 18 85 32 0 14
-91 178 -99 178 -4 0 -11 -3 -14 -7z"/>
<path d="M1591 2338 c-18 -59 -68 -139 -141 -227 -69 -81 -90 -123 -90 -176 0
-41 32 -110 58 -123 9 -6 73 -11 142 -13 l125 -4 34 67 c69 136 51 292 -52
445 -26 40 -52 73 -56 73 -4 0 -13 -19 -20 -42z m100 -194 c8 -10 13 -41 13
-85 -1 -56 -7 -80 -33 -133 -35 -71 -53 -84 -87 -61 -30 19 -30 22 3 85 21 40
28 69 29 121 1 37 5 72 9 78 10 16 51 13 66 -5z"/>
<path d="M790 2169 c-20 -11 -55 -19 -83 -19 l-48 0 3 -82 c3 -81 3 -83 37
-105 67 -46 161 -20 196 54 l18 36 -36 66 c-20 36 -39 66 -44 67 -4 1 -24 -7
-43 -17z"/>
<path d="M902 1892 l-33 -28 16 -72 c16 -69 16 -74 -1 -93 -36 -40 -66 -13
-86 80 l-14 64 -47 12 c-26 7 -47 9 -47 6 1 -17 188 -802 193 -807 7 -8 80
-24 85 -19 2 2 -21 111 -52 243 -31 131 -54 246 -50 255 12 33 68 32 78 -1 3
-10 30 -123 61 -252 30 -129 57 -246 60 -259 6 -23 8 -21 39 25 l33 49 -96
413 c-53 226 -98 412 -101 412 -3 0 -20 -13 -38 -28z"/>
<path d="M2218 1801 c-73 -46 -88 -60 -88 -82 0 -14 -9 -59 -20 -100 -36 -133
-37 -125 7 -168 46 -46 107 -67 162 -54 31 8 41 18 73 76 20 37 50 85 66 107
l29 40 -22 96 c-13 52 -25 97 -27 99 -2 2 -19 -33 -38 -78 -32 -76 -37 -82
-64 -82 -51 0 -54 24 -17 115 19 44 32 82 30 84 -2 1 -43 -22 -91 -53z"/>
<path d="M1436 1711 c-2 -3 -7 -31 -11 -62 l-7 -56 32 -7 c18 -3 70 -6 115 -6
l83 0 3 33 c7 58 -1 87 -24 91 -37 8 -188 13 -191 7z"/>
<path d="M193 1505 c-95 -39 -175 -74 -179 -77 -5 -5 123 -321 291 -722 l17
-40 19 53 c10 29 32 75 50 102 36 57 129 144 176 167 18 9 33 20 33 24 0 11
-28 78 -33 78 -2 0 -42 -16 -90 -35 -96 -39 -127 -36 -127 9 0 30 9 37 103 76
42 17 77 35 77 39 0 19 -23 71 -31 71 -5 0 -26 -7 -46 -15 -48 -20 -70 -19
-83 6 -20 36 -6 49 98 95 7 3 -30 74 -39 74 -5 0 -42 -13 -81 -30 -82 -35
-113 -38 -128 -10 -18 34 4 54 94 91 47 19 86 39 86 44 -1 6 -9 24 -18 41
l-17 31 -172 -72z"/>
<path d="M1405 1401 c-4 -56 -5 -104 -2 -107 3 -3 29 -1 59 5 29 6 79 12 110
14 64 2 57 -9 74 125 l6 52 -75 0 c-41 0 -95 3 -119 6 l-46 6 -7 -101z"/>
<path d="M1990 1301 l-41 -98 58 -56 c32 -31 75 -83 95 -117 l35 -60 67 160
c36 88 66 162 66 164 0 2 -21 7 -47 11 -62 9 -109 29 -155 65 l-36 29 -42 -98z"/>
<path d="M1505 1220 c-155 -32 -288 -134 -357 -274 -17 -36 -39 -67 -47 -69
-9 -1 -50 14 -91 35 -176 90 -355 65 -489 -69 -65 -66 -97 -125 -112 -209 -21
-118 -12 -109 -119 -109 -87 0 -100 -3 -149 -30 -63 -35 -105 -88 -126 -158
-19 -64 -19 -81 1 -148 12 -41 28 -66 69 -106 91 -88 19 -83 1140 -83 1083 0
1041 -2 1127 63 64 49 93 114 93 207 -1 90 -23 139 -86 194 -57 48 -126 70
-199 63 -78 -9 -87 2 -72 87 34 183 -11 340 -133 462 -119 120 -294 176 -450
144z m67 -106 c11 -23 10 -29 -11 -45 -13 -11 -34 -19 -48 -19 -60 0 -123 -53
-156 -132 -12 -29 -22 -38 -40 -38 -39 0 -52 24 -39 69 32 106 139 189 245
191 31 0 39 -5 49 -26z m-831 -305 c11 -21 -4 -59 -23 -59 -6 0 -26 -11 -43
-24 -31 -24 -47 -53 -59 -108 -14 -63 -86 -56 -86 8 0 75 59 160 134 194 43
20 61 17 77 -11z m605 -214 c17 -7 50 -29 71 -49 37 -33 43 -35 74 -26 80 23
148 4 212 -60 48 -48 59 -84 35 -108 -21 -21 -46 -13 -74 24 -50 65 -113 80
-184 44 -47 -24 -63 -19 -89 26 -23 39 -71 71 -119 80 -73 14 -169 -43 -193
-113 -11 -34 -8 -101 5 -134 10 -24 -26 -63 -51 -55 -30 10 -48 61 -48 136 1
184 190 307 361 235z"/>
</g>
</svg>
