<?xml version="1.0" standalone="no"?>
<!DOCTYPE svg PUBLIC "-//W3C//DTD SVG 20010904//EN"
 "http://www.w3.org/TR/2001/REC-SVG-20010904/DTD/svg10.dtd">
<svg version="1.0" xmlns="http://www.w3.org/2000/svg"
 width="512.000000pt" height="512.000000pt" viewBox="0 0 512.000000 512.000000"
 preserveAspectRatio="xMidYMid meet">

<g transform="translate(0.000000,512.000000) scale(0.100000,-0.100000)"
fill="#000000" stroke="none">
<path d="M2394 5106 c-228 -44 -390 -129 -549 -290 -138 -139 -220 -283 -267
-472 -33 -132 -31 -351 4 -484 99 -369 384 -646 759 -737 109 -27 355 -24 461
5 192 52 351 146 484 284 326 340 376 852 120 1247 -98 151 -267 298 -432 372
-164 74 -414 107 -580 75z"/>
<path d="M2363 2751 c-89 -55 -85 -113 20 -271 l75 -115 -34 -281 -34 -280 69
-179 c37 -99 75 -184 84 -189 12 -8 22 -8 34 0 9 5 47 91 84 189 l69 179 -34
281 -34 280 76 115 c60 92 76 124 80 161 4 42 1 50 -31 85 l-35 39 -179 3
c-163 2 -181 1 -210 -17z"/>
<path d="M1690 2693 c-14 -2 -110 -18 -215 -34 -104 -17 -225 -39 -269 -50
-319 -80 -558 -369 -606 -730 -7 -57 -10 -330 -8 -834 l3 -750 23 -57 c33 -81
108 -160 190 -200 l67 -33 1685 0 1685 0 67 33 c82 40 157 119 190 200 l23 57
0 800 0 800 -23 85 c-69 254 -241 467 -469 580 -99 49 -204 73 -508 117 l-194
28 -27 -21 c-23 -17 -73 -146 -336 -869 -340 -934 -327 -905 -408 -905 -81 0
-68 -28 -405 900 -234 644 -313 850 -331 868 -25 22 -65 26 -134 15z"/>
</g>
</svg>
